<svg xmlns="http://www.w3.org/2000/svg" xmlns:xlink="http://www.w3.org/1999/xlink" width="500" zoomAndPan="magnify" viewBox="0 0 375 374.999991" height="500" preserveAspectRatio="xMidYMid meet" version="1.0"><defs><clipPath id="41a16ed1cf"><path d="M 112.5 127.5 L 262.5 127.5 L 262.5 168 L 112.5 168 Z M 112.5 127.5 " clip-rule="nonzero"/></clipPath><clipPath id="e3d0ef6c25"><path d="M 112.5 207 L 262.5 207 L 262.5 247.5 L 112.5 247.5 Z M 112.5 207 " clip-rule="nonzero"/></clipPath><clipPath id="520c83ccca"><path d="M 112.5 167 L 262.5 167 L 262.5 208 L 112.5 208 Z M 112.5 167 " clip-rule="nonzero"/></clipPath></defs><g clip-path="url(#41a16ed1cf)"><path fill="#000000" d="M 257.5 142.5 L 166.789062 142.5 C 166.519531 141.433594 166.164062 140.398438 165.71875 139.394531 C 165.277344 138.390625 164.753906 137.425781 164.152344 136.507812 C 163.550781 135.589844 162.878906 134.726562 162.132812 133.917969 C 161.390625 133.109375 160.582031 132.367188 159.714844 131.695312 C 158.847656 131.019531 157.933594 130.421875 156.964844 129.898438 C 156 129.378906 154.996094 128.9375 153.957031 128.582031 C 152.917969 128.226562 151.855469 127.957031 150.773438 127.777344 C 149.691406 127.59375 148.597656 127.503906 147.5 127.503906 C 146.402344 127.503906 145.308594 127.59375 144.226562 127.777344 C 143.144531 127.957031 142.082031 128.226562 141.042969 128.582031 C 140.003906 128.9375 139 129.378906 138.035156 129.898438 C 137.066406 130.421875 136.152344 131.019531 135.285156 131.695312 C 134.417969 132.367188 133.609375 133.109375 132.867188 133.917969 C 132.121094 134.726562 131.449219 135.589844 130.847656 136.507812 C 130.246094 137.425781 129.722656 138.390625 129.28125 139.394531 C 128.835938 140.398438 128.480469 141.433594 128.210938 142.5 L 117.5 142.5 C 117.171875 142.5 116.847656 142.53125 116.523438 142.597656 C 116.203125 142.660156 115.890625 142.753906 115.585938 142.878906 C 115.285156 143.007812 114.996094 143.160156 114.722656 143.34375 C 114.449219 143.523438 114.195312 143.730469 113.964844 143.964844 C 113.730469 144.195312 113.523438 144.449219 113.34375 144.722656 C 113.160156 144.996094 113.007812 145.285156 112.878906 145.585938 C 112.753906 145.890625 112.660156 146.203125 112.597656 146.523438 C 112.53125 146.847656 112.5 147.171875 112.5 147.5 C 112.5 147.828125 112.53125 148.152344 112.597656 148.476562 C 112.660156 148.796875 112.753906 149.109375 112.878906 149.414062 C 113.007812 149.714844 113.160156 150.003906 113.34375 150.277344 C 113.523438 150.550781 113.730469 150.804688 113.964844 151.035156 C 114.195312 151.269531 114.449219 151.476562 114.722656 151.65625 C 114.996094 151.839844 115.285156 151.992188 115.585938 152.121094 C 115.890625 152.246094 116.203125 152.339844 116.523438 152.402344 C 116.847656 152.46875 117.171875 152.5 117.5 152.5 L 128.210938 152.5 C 128.480469 153.566406 128.835938 154.601562 129.28125 155.605469 C 129.722656 156.609375 130.246094 157.574219 130.847656 158.492188 C 131.449219 159.410156 132.121094 160.273438 132.867188 161.082031 C 133.609375 161.890625 134.417969 162.632812 135.285156 163.304688 C 136.152344 163.980469 137.066406 164.578125 138.035156 165.101562 C 139 165.621094 140.003906 166.0625 141.042969 166.417969 C 142.082031 166.773438 143.144531 167.042969 144.226562 167.222656 C 145.308594 167.40625 146.402344 167.496094 147.5 167.496094 C 148.597656 167.496094 149.691406 167.40625 150.773438 167.222656 C 151.855469 167.042969 152.917969 166.773438 153.957031 166.417969 C 154.996094 166.0625 156 165.621094 156.964844 165.101562 C 157.933594 164.578125 158.847656 163.980469 159.714844 163.304688 C 160.582031 162.632812 161.390625 161.890625 162.132812 161.082031 C 162.878906 160.273438 163.550781 159.410156 164.152344 158.492188 C 164.753906 157.574219 165.277344 156.609375 165.71875 155.605469 C 166.164062 154.601562 166.519531 153.566406 166.789062 152.5 L 257.5 152.5 C 257.828125 152.5 258.152344 152.46875 258.476562 152.402344 C 258.796875 152.339844 259.109375 152.246094 259.414062 152.121094 C 259.714844 151.992188 260.003906 151.839844 260.277344 151.65625 C 260.550781 151.476562 260.804688 151.269531 261.035156 151.035156 C 261.269531 150.804688 261.476562 150.550781 261.65625 150.277344 C 261.839844 150.003906 261.992188 149.714844 262.121094 149.414062 C 262.246094 149.109375 262.339844 148.796875 262.402344 148.476562 C 262.46875 148.152344 262.5 147.828125 262.5 147.5 C 262.5 147.171875 262.46875 146.847656 262.402344 146.523438 C 262.339844 146.203125 262.246094 145.890625 262.121094 145.585938 C 261.992188 145.285156 261.839844 144.996094 261.65625 144.722656 C 261.476562 144.449219 261.269531 144.195312 261.035156 143.964844 C 260.804688 143.730469 260.550781 143.523438 260.277344 143.34375 C 260.003906 143.160156 259.714844 143.007812 259.414062 142.878906 C 259.109375 142.753906 258.796875 142.660156 258.476562 142.597656 C 258.152344 142.53125 257.828125 142.5 257.5 142.5 Z M 147.5 157.5 C 146.84375 157.5 146.191406 157.4375 145.550781 157.308594 C 144.90625 157.179688 144.28125 156.988281 143.671875 156.738281 C 143.066406 156.488281 142.488281 156.179688 141.945312 155.816406 C 141.398438 155.449219 140.894531 155.035156 140.429688 154.570312 C 139.964844 154.105469 139.550781 153.601562 139.183594 153.054688 C 138.820312 152.507812 138.511719 151.933594 138.261719 151.328125 C 138.011719 150.71875 137.820312 150.09375 137.691406 149.449219 C 137.5625 148.808594 137.5 148.15625 137.5 147.5 C 137.5 146.84375 137.5625 146.191406 137.691406 145.550781 C 137.820312 144.90625 138.011719 144.28125 138.261719 143.671875 C 138.511719 143.066406 138.820312 142.492188 139.183594 141.945312 C 139.550781 141.398438 139.964844 140.894531 140.429688 140.429688 C 140.894531 139.964844 141.398438 139.550781 141.945312 139.183594 C 142.488281 138.820312 143.066406 138.511719 143.671875 138.261719 C 144.28125 138.011719 144.90625 137.820312 145.550781 137.691406 C 146.191406 137.5625 146.84375 137.5 147.5 137.5 C 148.15625 137.5 148.808594 137.5625 149.449219 137.691406 C 150.09375 137.820312 150.71875 138.011719 151.328125 138.261719 C 151.933594 138.511719 152.507812 138.820312 153.054688 139.183594 C 153.601562 139.550781 154.105469 139.964844 154.570312 140.429688 C 155.035156 140.894531 155.449219 141.398438 155.816406 141.945312 C 156.179688 142.492188 156.488281 143.066406 156.738281 143.671875 C 156.988281 144.28125 157.179688 144.90625 157.308594 145.550781 C 157.4375 146.191406 157.5 146.84375 157.5 147.5 C 157.5 148.15625 157.4375 148.808594 157.308594 149.449219 C 157.179688 150.09375 156.988281 150.71875 156.738281 151.328125 C 156.488281 151.933594 156.179688 152.507812 155.816406 153.054688 C 155.449219 153.601562 155.035156 154.105469 154.570312 154.570312 C 154.105469 155.035156 153.601562 155.449219 153.054688 155.816406 C 152.507812 156.179688 151.933594 156.488281 151.328125 156.738281 C 150.71875 156.988281 150.09375 157.179688 149.449219 157.308594 C 148.808594 157.4375 148.15625 157.5 147.5 157.5 Z M 147.5 157.5 " fill-opacity="1" fill-rule="nonzero"/></g><g clip-path="url(#e3d0ef6c25)"><path fill="#000000" d="M 257.5 222.5 L 191.789062 222.5 C 191.519531 221.433594 191.164062 220.398438 190.71875 219.394531 C 190.277344 218.390625 189.753906 217.425781 189.152344 216.507812 C 188.550781 215.589844 187.878906 214.726562 187.132812 213.917969 C 186.390625 213.109375 185.582031 212.367188 184.714844 211.695312 C 183.847656 211.019531 182.933594 210.421875 181.964844 209.898438 C 181 209.378906 179.996094 208.9375 178.957031 208.582031 C 177.917969 208.226562 176.855469 207.957031 175.773438 207.777344 C 174.691406 207.59375 173.597656 207.503906 172.5 207.503906 C 171.402344 207.503906 170.308594 207.59375 169.226562 207.777344 C 168.144531 207.957031 167.082031 208.226562 166.042969 208.582031 C 165.003906 208.9375 164 209.378906 163.035156 209.898438 C 162.066406 210.421875 161.152344 211.019531 160.285156 211.695312 C 159.417969 212.367188 158.609375 213.109375 157.867188 213.917969 C 157.121094 214.726562 156.449219 215.589844 155.847656 216.507812 C 155.246094 217.425781 154.722656 218.390625 154.28125 219.394531 C 153.835938 220.398438 153.480469 221.433594 153.210938 222.5 L 117.5 222.5 C 117.171875 222.5 116.847656 222.53125 116.523438 222.597656 C 116.203125 222.660156 115.890625 222.753906 115.585938 222.878906 C 115.285156 223.007812 114.996094 223.160156 114.722656 223.34375 C 114.449219 223.523438 114.195312 223.730469 113.964844 223.964844 C 113.730469 224.195312 113.523438 224.449219 113.34375 224.722656 C 113.160156 224.996094 113.007812 225.285156 112.878906 225.585938 C 112.753906 225.890625 112.660156 226.203125 112.597656 226.523438 C 112.53125 226.847656 112.5 227.171875 112.5 227.5 C 112.5 227.828125 112.53125 228.152344 112.597656 228.476562 C 112.660156 228.796875 112.753906 229.109375 112.878906 229.414062 C 113.007812 229.714844 113.160156 230.003906 113.34375 230.277344 C 113.523438 230.550781 113.730469 230.804688 113.964844 231.035156 C 114.195312 231.269531 114.449219 231.476562 114.722656 231.65625 C 114.996094 231.839844 115.285156 231.992188 115.585938 232.121094 C 115.890625 232.246094 116.203125 232.339844 116.523438 232.402344 C 116.847656 232.46875 117.171875 232.5 117.5 232.5 L 153.210938 232.5 C 153.480469 233.566406 153.835938 234.601562 154.28125 235.605469 C 154.722656 236.609375 155.246094 237.574219 155.847656 238.492188 C 156.449219 239.410156 157.121094 240.273438 157.867188 241.082031 C 158.609375 241.890625 159.417969 242.632812 160.285156 243.304688 C 161.152344 243.980469 162.066406 244.578125 163.035156 245.101562 C 164 245.621094 165.003906 246.0625 166.042969 246.417969 C 167.082031 246.773438 168.144531 247.042969 169.226562 247.222656 C 170.308594 247.40625 171.402344 247.496094 172.5 247.496094 C 173.597656 247.496094 174.691406 247.40625 175.773438 247.222656 C 176.855469 247.042969 177.917969 246.773438 178.957031 246.417969 C 179.996094 246.0625 181 245.621094 181.964844 245.101562 C 182.933594 244.578125 183.847656 243.980469 184.714844 243.304688 C 185.582031 242.632812 186.390625 241.890625 187.132812 241.082031 C 187.878906 240.273438 188.550781 239.410156 189.152344 238.492188 C 189.753906 237.574219 190.277344 236.609375 190.71875 235.605469 C 191.164062 234.601562 191.519531 233.566406 191.789062 232.5 L 257.5 232.5 C 257.828125 232.5 258.152344 232.46875 258.476562 232.402344 C 258.796875 232.339844 259.109375 232.246094 259.414062 232.121094 C 259.714844 231.992188 260.003906 231.839844 260.277344 231.65625 C 260.550781 231.476562 260.804688 231.269531 261.035156 231.035156 C 261.269531 230.804688 261.476562 230.550781 261.65625 230.277344 C 261.839844 230.003906 261.992188 229.714844 262.121094 229.414062 C 262.246094 229.109375 262.339844 228.796875 262.402344 228.476562 C 262.46875 228.152344 262.5 227.828125 262.5 227.5 C 262.5 227.171875 262.46875 226.847656 262.402344 226.523438 C 262.339844 226.203125 262.246094 225.890625 262.121094 225.585938 C 261.992188 225.285156 261.839844 224.996094 261.65625 224.722656 C 261.476562 224.449219 261.269531 224.195312 261.035156 223.964844 C 260.804688 223.730469 260.550781 223.523438 260.277344 223.34375 C 260.003906 223.160156 259.714844 223.007812 259.414062 222.878906 C 259.109375 222.753906 258.796875 222.660156 258.476562 222.597656 C 258.152344 222.53125 257.828125 222.5 257.5 222.5 Z M 172.5 237.5 C 171.84375 237.5 171.191406 237.4375 170.550781 237.308594 C 169.90625 237.179688 169.28125 236.988281 168.671875 236.738281 C 168.066406 236.488281 167.488281 236.179688 166.945312 235.816406 C 166.398438 235.449219 165.894531 235.035156 165.429688 234.570312 C 164.964844 234.105469 164.550781 233.601562 164.183594 233.054688 C 163.820312 232.507812 163.511719 231.933594 163.261719 231.328125 C 163.011719 230.71875 162.820312 230.09375 162.691406 229.449219 C 162.5625 228.808594 162.5 228.15625 162.5 227.5 C 162.5 226.84375 162.5625 226.191406 162.691406 225.550781 C 162.820312 224.90625 163.011719 224.28125 163.261719 223.671875 C 163.511719 223.066406 163.820312 222.488281 164.183594 221.945312 C 164.550781 221.398438 164.964844 220.894531 165.429688 220.429688 C 165.894531 219.964844 166.398438 219.550781 166.945312 219.183594 C 167.488281 218.820312 168.066406 218.511719 168.671875 218.261719 C 169.28125 218.011719 169.90625 217.820312 170.550781 217.691406 C 171.191406 217.5625 171.84375 217.5 172.5 217.5 C 173.15625 217.5 173.808594 217.5625 174.449219 217.691406 C 175.09375 217.820312 175.71875 218.011719 176.328125 218.261719 C 176.933594 218.511719 177.507812 218.820312 178.054688 219.183594 C 178.601562 219.550781 179.105469 219.964844 179.570312 220.429688 C 180.035156 220.894531 180.449219 221.398438 180.816406 221.945312 C 181.179688 222.488281 181.488281 223.066406 181.738281 223.671875 C 181.988281 224.28125 182.179688 224.90625 182.308594 225.550781 C 182.4375 226.191406 182.5 226.84375 182.5 227.5 C 182.5 228.15625 182.4375 228.808594 182.308594 229.449219 C 182.179688 230.09375 181.988281 230.71875 181.738281 231.328125 C 181.488281 231.933594 181.179688 232.507812 180.816406 233.054688 C 180.449219 233.601562 180.035156 234.105469 179.570312 234.570312 C 179.105469 235.035156 178.601562 235.449219 178.054688 235.816406 C 177.507812 236.179688 176.933594 236.488281 176.328125 236.738281 C 175.71875 236.988281 175.09375 237.179688 174.449219 237.308594 C 173.808594 237.4375 173.15625 237.5 172.5 237.5 Z M 172.5 237.5 " fill-opacity="1" fill-rule="nonzero"/></g><g clip-path="url(#520c83ccca)"><path fill="#000000" d="M 257.5 182.5 L 251.789062 182.5 C 251.519531 181.433594 251.164062 180.398438 250.71875 179.394531 C 250.277344 178.390625 249.753906 177.425781 249.152344 176.507812 C 248.550781 175.589844 247.878906 174.726562 247.132812 173.917969 C 246.390625 173.109375 245.582031 172.367188 244.714844 171.695312 C 243.847656 171.019531 242.933594 170.421875 241.964844 169.898438 C 241 169.378906 239.996094 168.9375 238.957031 168.582031 C 237.917969 168.226562 236.855469 167.957031 235.773438 167.777344 C 234.691406 167.59375 233.597656 167.503906 232.5 167.503906 C 231.402344 167.503906 230.308594 167.59375 229.226562 167.777344 C 228.144531 167.957031 227.082031 168.226562 226.042969 168.582031 C 225.003906 168.9375 224 169.378906 223.035156 169.898438 C 222.066406 170.421875 221.152344 171.019531 220.285156 171.695312 C 219.417969 172.367188 218.609375 173.109375 217.867188 173.917969 C 217.121094 174.726562 216.449219 175.589844 215.847656 176.507812 C 215.246094 177.425781 214.722656 178.390625 214.28125 179.394531 C 213.835938 180.398438 213.480469 181.433594 213.210938 182.5 L 117.5 182.5 C 117.171875 182.5 116.847656 182.53125 116.523438 182.597656 C 116.203125 182.660156 115.890625 182.753906 115.585938 182.878906 C 115.285156 183.007812 114.996094 183.160156 114.722656 183.34375 C 114.449219 183.523438 114.195312 183.730469 113.964844 183.964844 C 113.730469 184.195312 113.523438 184.449219 113.34375 184.722656 C 113.160156 184.996094 113.007812 185.285156 112.878906 185.585938 C 112.753906 185.890625 112.660156 186.203125 112.597656 186.523438 C 112.53125 186.847656 112.5 187.171875 112.5 187.5 C 112.5 187.828125 112.53125 188.152344 112.597656 188.476562 C 112.660156 188.796875 112.753906 189.109375 112.878906 189.414062 C 113.007812 189.714844 113.160156 190.003906 113.34375 190.277344 C 113.523438 190.550781 113.730469 190.804688 113.964844 191.035156 C 114.195312 191.269531 114.449219 191.476562 114.722656 191.65625 C 114.996094 191.839844 115.285156 191.992188 115.585938 192.121094 C 115.890625 192.246094 116.203125 192.339844 116.523438 192.402344 C 116.847656 192.46875 117.171875 192.5 117.5 192.5 L 213.210938 192.5 C 213.480469 193.566406 213.835938 194.601562 214.28125 195.605469 C 214.722656 196.609375 215.246094 197.574219 215.847656 198.492188 C 216.449219 199.410156 217.121094 200.273438 217.867188 201.082031 C 218.609375 201.890625 219.417969 202.632812 220.285156 203.304688 C 221.152344 203.980469 222.066406 204.578125 223.035156 205.101562 C 224 205.621094 225.003906 206.0625 226.042969 206.417969 C 227.082031 206.773438 228.144531 207.042969 229.226562 207.222656 C 230.308594 207.40625 231.402344 207.496094 232.5 207.496094 C 233.597656 207.496094 234.691406 207.40625 235.773438 207.222656 C 236.855469 207.042969 237.917969 206.773438 238.957031 206.417969 C 239.996094 206.0625 241 205.621094 241.964844 205.101562 C 242.933594 204.578125 243.847656 203.980469 244.714844 203.304688 C 245.582031 202.632812 246.390625 201.890625 247.132812 201.082031 C 247.878906 200.273438 248.550781 199.410156 249.152344 198.492188 C 249.753906 197.574219 250.277344 196.609375 250.71875 195.605469 C 251.164062 194.601562 251.519531 193.566406 251.789062 192.5 L 257.5 192.5 C 257.828125 192.5 258.152344 192.46875 258.476562 192.402344 C 258.796875 192.339844 259.109375 192.246094 259.414062 192.121094 C 259.714844 191.992188 260.003906 191.839844 260.277344 191.65625 C 260.550781 191.476562 260.804688 191.269531 261.035156 191.035156 C 261.269531 190.804688 261.476562 190.550781 261.65625 190.277344 C 261.839844 190.003906 261.992188 189.714844 262.121094 189.414062 C 262.246094 189.109375 262.339844 188.796875 262.402344 188.476562 C 262.46875 188.152344 262.5 187.828125 262.5 187.5 C 262.5 187.171875 262.46875 186.847656 262.402344 186.523438 C 262.339844 186.203125 262.246094 185.890625 262.121094 185.585938 C 261.992188 185.285156 261.839844 184.996094 261.65625 184.722656 C 261.476562 184.449219 261.269531 184.195312 261.035156 183.964844 C 260.804688 183.730469 260.550781 183.523438 260.277344 183.34375 C 260.003906 183.160156 259.714844 183.007812 259.414062 182.878906 C 259.109375 182.753906 258.796875 182.660156 258.476562 182.597656 C 258.152344 182.53125 257.828125 182.5 257.5 182.5 Z M 232.5 197.5 C 231.84375 197.5 231.191406 197.4375 230.550781 197.308594 C 229.90625 197.179688 229.28125 196.988281 228.671875 196.738281 C 228.066406 196.488281 227.488281 196.179688 226.945312 195.816406 C 226.398438 195.449219 225.894531 195.035156 225.429688 194.570312 C 224.964844 194.105469 224.550781 193.601562 224.183594 193.054688 C 223.820312 192.507812 223.511719 191.933594 223.261719 191.328125 C 223.011719 190.71875 222.820312 190.09375 222.691406 189.449219 C 222.5625 188.808594 222.5 188.15625 222.5 187.5 C 222.5 186.84375 222.5625 186.191406 222.691406 185.550781 C 222.820312 184.90625 223.011719 184.28125 223.261719 183.671875 C 223.511719 183.066406 223.820312 182.488281 224.183594 181.945312 C 224.550781 181.398438 224.964844 180.894531 225.429688 180.429688 C 225.894531 179.964844 226.398438 179.550781 226.945312 179.183594 C 227.488281 178.820312 228.066406 178.511719 228.671875 178.261719 C 229.28125 178.011719 229.90625 177.820312 230.550781 177.691406 C 231.191406 177.5625 231.84375 177.5 232.5 177.5 C 233.15625 177.5 233.808594 177.5625 234.449219 177.691406 C 235.09375 177.820312 235.71875 178.011719 236.328125 178.261719 C 236.933594 178.511719 237.507812 178.820312 238.054688 179.183594 C 238.601562 179.550781 239.105469 179.964844 239.570312 180.429688 C 240.035156 180.894531 240.449219 181.398438 240.816406 181.945312 C 241.179688 182.488281 241.488281 183.066406 241.738281 183.671875 C 241.988281 184.28125 242.179688 184.90625 242.308594 185.550781 C 242.4375 186.191406 242.5 186.84375 242.5 187.5 C 242.5 188.15625 242.4375 188.808594 242.308594 189.449219 C 242.179688 190.09375 241.988281 190.71875 241.738281 191.328125 C 241.488281 191.933594 241.179688 192.507812 240.816406 193.054688 C 240.449219 193.601562 240.035156 194.105469 239.570312 194.570312 C 239.105469 195.035156 238.601562 195.449219 238.054688 195.816406 C 237.507812 196.179688 236.933594 196.488281 236.328125 196.738281 C 235.71875 196.988281 235.09375 197.179688 234.449219 197.308594 C 233.808594 197.4375 233.15625 197.5 232.5 197.5 Z M 232.5 197.5 " fill-opacity="1" fill-rule="nonzero"/></g></svg>